# xmcd CD database file
#
# Track frame offsets:
#	150
#	17565
#	37052
#	54069
#	71695
#	94006
#	109192
#	125040
#	141728
#	166571
#	183003
#	200843
#	216792
#	232267
#	246652
#	262218
#	275119
#	291582
#	311182
#
# Disc length: 4399 seconds
#
# Revision: 10
# Processed by: cddbd v1.5.2PL0 Copyright (c) Steve Scherf et al.
# Submitted via: CDex 1.79
#
DISCID=3a112d13
DTITLE=BRAVO HITS 28 - Various - CD2 - BRAVO HITS 28 - Various - CD2
DYEAR=2000
DGENRE=Pop
TTITLE0=Echt - Weinst Du (Single Version)
TTITLE1=Robbie Williams - She's The One
TTITLE2=Die Toten Hosen - Unsterblich
TTITLE3=Macy Gray - I Try
TTITLE4=R Kelly - If I Could Turn Back The Hands Of Time
TTITLE5=Brian McKnight - Back At One (Radio Edit)
TTITLE6=Boyzone - Every Day I Love You
TTITLE7=Moby - Why Does My Heart Feel So Bad?
TTITLE8=Jan Delay feat. Dennis Dubplate and Absolute Beginner - Irgenwie, Irgendwo, Irgendwann
TTITLE9=Schiller - Ruhe (Fernseh Fassung)
TTITLE10=Enigma - Gravity Of Love
TTITLE11=Pearls - When Winter Calls ... (Radio Mix)
TTITLE12=Hermes House Band - Can't Take My Eyes Off Of You (Radio Mix)
TTITLE13=Oli P. - So bist du (und wenn Du gehst ...)
TTITLE14=Q Connection - Where I'm From
TTITLE15=Sisqo - Go To Get It
TTITLE16=Harleckinz - Berlin Love (Radio Edit)
TTITLE17=Pur - Adler Sollen Fliegen
TTITLE18=Oleander - I Walk Alone
EXTD=YEAR: 2000
EXTT0=
EXTT1=
EXTT2=
EXTT3=
EXTT4=
EXTT5=
EXTT6=
EXTT7=
EXTT8=Feat. Dennis Dubplate - Absolute Beginner
EXTT9=
EXTT10=
EXTT11=
EXTT12=
EXTT13=
EXTT14=
EXTT15=
EXTT16=
EXTT17=
EXTT18=
PLAYORDER=
